<mxfile host="app.diagrams.net" agent="Mozilla/5.0 (Windows NT 10.0; Win64; x64) AppleWebKit/537.36 (KHTML, like Gecko) Chrome/140.0.0.0 Safari/537.36" version="28.2.5">
  <diagram name="Page-1" id="hCc89WBR20Tb0G_g0bw6">
    <mxGraphModel dx="1895" dy="1002" grid="1" gridSize="10" guides="1" tooltips="1" connect="1" arrows="1" fold="1" page="1" pageScale="1" pageWidth="850" pageHeight="1100" math="0" shadow="0">
      <root>
        <mxCell id="0" />
        <mxCell id="1" parent="0" />
        <mxCell id="R3oZv2APO3j5Gzry1_CE-3" value="" style="edgeStyle=orthogonalEdgeStyle;rounded=0;orthogonalLoop=1;jettySize=auto;html=1;" edge="1" parent="1" source="R3oZv2APO3j5Gzry1_CE-1" target="R3oZv2APO3j5Gzry1_CE-2">
          <mxGeometry relative="1" as="geometry" />
        </mxCell>
        <mxCell id="R3oZv2APO3j5Gzry1_CE-1" value="START" style="strokeWidth=2;html=1;shape=mxgraph.flowchart.terminator;whiteSpace=wrap;fontSize=14;" vertex="1" parent="1">
          <mxGeometry x="390" y="20" width="105" height="50" as="geometry" />
        </mxCell>
        <mxCell id="R3oZv2APO3j5Gzry1_CE-5" value="" style="edgeStyle=orthogonalEdgeStyle;rounded=0;orthogonalLoop=1;jettySize=auto;html=1;" edge="1" parent="1" source="R3oZv2APO3j5Gzry1_CE-2" target="R3oZv2APO3j5Gzry1_CE-4">
          <mxGeometry relative="1" as="geometry" />
        </mxCell>
        <mxCell id="R3oZv2APO3j5Gzry1_CE-2" value="define f(x)&lt;div&gt;define f&#39;(x)&lt;/div&gt;" style="verticalLabelPosition=middle;verticalAlign=middle;html=1;shape=hexagon;perimeter=hexagonPerimeter2;arcSize=6;size=0.27;labelPosition=center;align=center;fontSize=14;" vertex="1" parent="1">
          <mxGeometry x="357.5" y="130" width="170" height="80" as="geometry" />
        </mxCell>
        <mxCell id="R3oZv2APO3j5Gzry1_CE-7" value="" style="edgeStyle=orthogonalEdgeStyle;rounded=0;orthogonalLoop=1;jettySize=auto;html=1;" edge="1" parent="1" source="R3oZv2APO3j5Gzry1_CE-4" target="R3oZv2APO3j5Gzry1_CE-6">
          <mxGeometry relative="1" as="geometry" />
        </mxCell>
        <mxCell id="R3oZv2APO3j5Gzry1_CE-4" value="define error&lt;div&gt;define max iter&lt;/div&gt;" style="verticalLabelPosition=middle;verticalAlign=middle;html=1;shape=hexagon;perimeter=hexagonPerimeter2;arcSize=6;size=0.27;labelPosition=center;align=center;fontSize=14;" vertex="1" parent="1">
          <mxGeometry x="357.5" y="270" width="170" height="80" as="geometry" />
        </mxCell>
        <mxCell id="R3oZv2APO3j5Gzry1_CE-9" value="" style="edgeStyle=orthogonalEdgeStyle;rounded=0;orthogonalLoop=1;jettySize=auto;html=1;" edge="1" parent="1" source="R3oZv2APO3j5Gzry1_CE-6" target="R3oZv2APO3j5Gzry1_CE-8">
          <mxGeometry relative="1" as="geometry" />
        </mxCell>
        <mxCell id="R3oZv2APO3j5Gzry1_CE-16" value="&lt;font style=&quot;font-size: 14px;&quot;&gt;TRUE&lt;/font&gt;" style="edgeLabel;html=1;align=center;verticalAlign=middle;resizable=0;points=[];" vertex="1" connectable="0" parent="R3oZv2APO3j5Gzry1_CE-9">
          <mxGeometry x="-0.2" relative="1" as="geometry">
            <mxPoint as="offset" />
          </mxGeometry>
        </mxCell>
        <mxCell id="R3oZv2APO3j5Gzry1_CE-6" value="&lt;div&gt;i &amp;lt; max iter?&lt;/div&gt;" style="rhombus;whiteSpace=wrap;html=1;fontSize=14;" vertex="1" parent="1">
          <mxGeometry x="378.5" y="410" width="128" height="130" as="geometry" />
        </mxCell>
        <mxCell id="R3oZv2APO3j5Gzry1_CE-12" value="" style="edgeStyle=orthogonalEdgeStyle;rounded=0;orthogonalLoop=1;jettySize=auto;html=1;" edge="1" parent="1" source="R3oZv2APO3j5Gzry1_CE-8" target="R3oZv2APO3j5Gzry1_CE-10">
          <mxGeometry relative="1" as="geometry" />
        </mxCell>
        <mxCell id="R3oZv2APO3j5Gzry1_CE-8" value="find f(x)&lt;div&gt;find f&#39;(x)&lt;/div&gt;" style="rounded=1;whiteSpace=wrap;html=1;absoluteArcSize=1;arcSize=0;strokeWidth=2;fontSize=14;" vertex="1" parent="1">
          <mxGeometry x="362.5" y="600" width="160" height="80" as="geometry" />
        </mxCell>
        <mxCell id="R3oZv2APO3j5Gzry1_CE-13" value="" style="edgeStyle=orthogonalEdgeStyle;rounded=0;orthogonalLoop=1;jettySize=auto;html=1;" edge="1" parent="1" source="R3oZv2APO3j5Gzry1_CE-10" target="R3oZv2APO3j5Gzry1_CE-11">
          <mxGeometry relative="1" as="geometry" />
        </mxCell>
        <mxCell id="R3oZv2APO3j5Gzry1_CE-23" value="&lt;font style=&quot;font-size: 14px;&quot;&gt;FALSE&lt;/font&gt;" style="edgeLabel;html=1;align=center;verticalAlign=middle;resizable=0;points=[];" vertex="1" connectable="0" parent="R3oZv2APO3j5Gzry1_CE-13">
          <mxGeometry x="-0.0494" relative="1" as="geometry">
            <mxPoint as="offset" />
          </mxGeometry>
        </mxCell>
        <mxCell id="R3oZv2APO3j5Gzry1_CE-18" style="edgeStyle=orthogonalEdgeStyle;rounded=0;orthogonalLoop=1;jettySize=auto;html=1;exitX=1;exitY=0.5;exitDx=0;exitDy=0;entryX=1;entryY=0.5;entryDx=0;entryDy=0;" edge="1" parent="1" source="R3oZv2APO3j5Gzry1_CE-10" target="R3oZv2APO3j5Gzry1_CE-14">
          <mxGeometry relative="1" as="geometry">
            <Array as="points">
              <mxPoint x="640" y="805" />
              <mxPoint x="640" y="1110" />
            </Array>
          </mxGeometry>
        </mxCell>
        <mxCell id="R3oZv2APO3j5Gzry1_CE-21" value="&lt;font style=&quot;font-size: 14px;&quot;&gt;TRUE&lt;/font&gt;" style="edgeLabel;html=1;align=center;verticalAlign=middle;resizable=0;points=[];" vertex="1" connectable="0" parent="R3oZv2APO3j5Gzry1_CE-18">
          <mxGeometry x="-0.7963" y="-1" relative="1" as="geometry">
            <mxPoint as="offset" />
          </mxGeometry>
        </mxCell>
        <mxCell id="R3oZv2APO3j5Gzry1_CE-10" value="|f(x)| &amp;lt; error?" style="rhombus;whiteSpace=wrap;html=1;fontSize=14;" vertex="1" parent="1">
          <mxGeometry x="378.5" y="740" width="128" height="130" as="geometry" />
        </mxCell>
        <mxCell id="R3oZv2APO3j5Gzry1_CE-11" value="x = x - (f(x) / f&#39;(x))" style="rounded=1;whiteSpace=wrap;html=1;absoluteArcSize=1;arcSize=0;strokeWidth=2;fontSize=14;" vertex="1" parent="1">
          <mxGeometry x="362.5" y="930" width="160" height="80" as="geometry" />
        </mxCell>
        <mxCell id="R3oZv2APO3j5Gzry1_CE-14" value="return x as root" style="rounded=1;whiteSpace=wrap;html=1;absoluteArcSize=1;arcSize=0;strokeWidth=2;fontSize=14;" vertex="1" parent="1">
          <mxGeometry x="362.5" y="1070" width="160" height="80" as="geometry" />
        </mxCell>
        <mxCell id="R3oZv2APO3j5Gzry1_CE-15" value="END" style="strokeWidth=2;html=1;shape=mxgraph.flowchart.terminator;whiteSpace=wrap;fontSize=14;" vertex="1" parent="1">
          <mxGeometry x="390" y="1210" width="105" height="50" as="geometry" />
        </mxCell>
        <mxCell id="R3oZv2APO3j5Gzry1_CE-20" style="edgeStyle=orthogonalEdgeStyle;rounded=0;orthogonalLoop=1;jettySize=auto;html=1;exitX=1;exitY=0.5;exitDx=0;exitDy=0;entryX=1;entryY=0.5;entryDx=0;entryDy=0;entryPerimeter=0;" edge="1" parent="1" source="R3oZv2APO3j5Gzry1_CE-6" target="R3oZv2APO3j5Gzry1_CE-15">
          <mxGeometry relative="1" as="geometry">
            <Array as="points">
              <mxPoint x="680" y="475" />
              <mxPoint x="680" y="1235" />
            </Array>
          </mxGeometry>
        </mxCell>
        <mxCell id="R3oZv2APO3j5Gzry1_CE-22" value="&lt;font style=&quot;font-size: 14px;&quot;&gt;FALSE&lt;/font&gt;" style="edgeLabel;html=1;align=center;verticalAlign=middle;resizable=0;points=[];" vertex="1" connectable="0" parent="R3oZv2APO3j5Gzry1_CE-20">
          <mxGeometry x="-0.8895" y="-1" relative="1" as="geometry">
            <mxPoint as="offset" />
          </mxGeometry>
        </mxCell>
      </root>
    </mxGraphModel>
  </diagram>
</mxfile>
